#!OML:ASF E:\pregnant2\Project 1\Capture day 1\Session 1\pregnant2.ASF
:FULLY-SPECIFIED
:DEGREES
756
root 2.14963 17.1947 25.1159 -149.788 37.9208 -180.555
lowerback -19.0193 -2.60625 -2.24515
upperback -14.9393 -0.683059 1.68238
thorax -5.52444 0.995037 2.86638
lowerneck -8.42983 -12.2067 -17.2159
upperneck 31.0143 -16.4973 12.3167
head 14.7589 -7.20495 5.35321
rclavicle -5.31252e-014 -1.59028e-014
rhumerus -100.136 37.5691 -116.053
rradius 77.4968
rwrist 27.6806
rhand -36.2262 -2.56842
rfingers 7.12502
rthumb -9.32802 -32.342
lclavicle -5.31252e-014 -1.59028e-014
lhumerus -98.225 -39.0102 117.829
lradius 88.8485
lwrist -12.9325
lhand -20.1306 21.2081
lfingers 7.12502
lthumb 6.21375 51.097
rfemur -44.2098 13.6085 15.2951
rtibia 28.3087
rfoot -15.8653 -21.8091
rtoes 6.2157
lfemur -40.5267 -9.98376 -18.9035
ltibia 27.6431
lfoot -12.7411 21.833
ltoes -10.3601
757
root 2.16552 17.1946 25.1187 -149.818 37.9262 -180.555
lowerback -19.0299 -2.58823 -2.22572
upperback -14.913 -0.667236 1.69075
thorax -5.4902 0.998422 2.86716
lowerneck -8.41785 -12.1894 -17.256
upperneck 30.9643 -16.4777 12.3644
head 14.7396 -7.19828 5.38236
rclavicle -7.29043e-014 -1.41137e-014
rhumerus -101.457 37.5707 -116.638
rradius 78.0084
rwrist 28.1458
rhand -35.692 -3.30252
rfingers 7.12502
rthumb -8.81256 -33.0985
lclavicle -7.29043e-014 -1.41137e-014
lhumerus -99.3561 -39.1475 118.067
lradius 89.5034
lwrist -13.9135
lhand -20.928 20.5049
lfingers 7.12502
lthumb 5.44391 50.415
rfemur -44.1345 13.7599 15.2854
rtibia 28.2608
rfoot -15.9442 -21.8953
rtoes 6.4372
lfemur -40.4705 -9.95243 -18.8705
ltibia 27.654
lfoot -12.7517 21.8338
ltoes -10.6579
758
root 2.18231 17.1943 25.1203 -149.811 37.9557 -180.559
lowerback -19.1093 -2.54987 -2.19464
upperback -14.8892 -0.6203 1.67191
thorax -5.42636 1.01685 2.83651
lowerneck -8.4608 -12.1898 -17.2401
upperneck 30.9503 -16.4781 12.3693
head 14.7413 -7.19514 5.37895
rclavicle -3.50855e-014 4.57205e-015
rhumerus -102.818 37.5039 -117.31
rradius 78.4921
rwrist 28.9091
rhand -33.1549 -5.16391
rfingers 7.12502
rthumb -6.36374 -35.0483
lclavicle -3.50855e-014 4.57205e-015
lhumerus -100.573 -39.3734 118.429
lradius 90.1353
lwrist -14.7523
lhand -21.6765 19.5908
lfingers 7.12502
lthumb 4.72114 49.5182
rfemur -44.0948 13.8454 15.3022
rtibia 28.2078
rfoot -15.9582 -21.9476
rtoes 6.15019
lfemur -40.4507 -9.93818 -18.8326
ltibia 27.6691
lfoot -12.7729 21.9009
ltoes -10.4441
759
root 2.19873 17.1955 25.1222 -149.812 37.9633 -180.534
lowerback -19.1312 -2.53337 -2.19151
upperback -14.8641 -0.602374 1.69892
thorax -5.38773 1.02429 2.86683
lowerneck -8.50077 -12.1777 -17.2177
upperneck 30.9224 -16.4542 12.3524
head 14.7274 -7.18453 5.36942
rclavicle -4.17945e-014 -1.09332e-014
rhumerus -104.166 37.4404 -118.018
rradius 78.9443
rwrist 29.5927
rhand -34.0628 -5.14394
rfingers 7.12502
rthumb -7.24021 -35.0001
lclavicle -4.17945e-014 -1.09332e-014
lhumerus -101.837 -39.6119 118.958
lradius 90.7712
lwrist -15.4843
lhand -22.6483 18.765
lfingers 7.12502
lthumb 3.78269 48.7111
rfemur -44.0155 13.9379 15.3467
rtibia 28.1544
rfoot -16.0283 -21.9732
rtoes 6.58607
lfemur -40.4028 -9.92684 -18.7679
ltibia 27.6777
lfoot -12.7967 21.9408
ltoes -10.763
760
root 2.21372 17.1951 25.1248 -149.845 37.9683 -180.541
lowerback -19.1052 -2.54199 -2.19018
upperback -14.8523 -0.618215 1.7487
thorax -5.38628 1.01668 2.9176
lowerneck -8.58413 -12.1472 -17.2623
upperneck 30.9475 -16.3813 12.3192
head 14.7442 -7.16019 5.37413
rclavicle -7.20594e-015 1.13307e-014
rhumerus -105.605 37.4024 -118.834
rradius 79.4141
rwrist 30.2395
rhand -35.124 -5.35643
rfingers 7.12502
rthumb -8.26443 -35.1748
lclavicle -7.20594e-015 1.13307e-014
lhumerus -102.97 -39.6112 119.369
lradius 91.337
lwrist -16.3605
lhand -23.7015 17.8127
lfingers 7.12502
lthumb 2.76563 47.7746
rfemur -43.9308 13.9898 15.3887
rtibia 28.0991
rfoot -16.0323 -22.0005
rtoes 6.34383
lfemur -40.3422 -9.90895 -18.7399
ltibia 27.678
lfoot -12.7959 21.9525
ltoes -10.8778
761
root 2.23012 17.196 25.1248 -149.934 37.9765 -180.543
lowerback -19.1108 -2.4858 -2.15644
upperback -14.7917 -0.56329 1.71423
thorax -5.31829 1.03155 2.87043
lowerneck -8.59166 -12.1483 -17.1984
upperneck 30.8849 -16.392 12.315
head 14.7104 -7.1598 5.35624
rclavicle 7.524e-014 3.49861e-014
rhumerus -106.87 37.1795 -119.581
rradius 79.9019
rwrist 30.7734
rhand -36.1238 -5.4166
rfingers 7.12502
rthumb -9.2293 -35.1946
lclavicle 7.524e-014 3.49861e-014
lhumerus -104.109 -39.8144 119.853
lradius 91.8812
lwrist -17.1242
lhand -24.8074 16.7688
lfingers 7.12502
lthumb 1.69758 46.7418
rfemur -43.7774 14.0786 15.4283
rtibia 28.0699
rfoot -16.1101 -22.019
rtoes 6.46416
lfemur -40.209 -9.92693 -18.7051
ltibia 27.692
lfoot -12.8553 22.0247
ltoes -10.639
762
root 2.24731 17.1959 25.122 -150.005 38.0414 -180.527
lowerback -19.1406 -2.47375 -2.15474
upperback -14.755 -0.553726 1.77889
thorax -5.26196 1.03486 2.94121
lowerneck -8.57355 -12.093 -17.2801
upperneck 30.8634 -16.29 12.3076
head 14.6845 -7.12893 5.38691
rclavicle -2.49972e-014 -4.33351e-014
rhumerus -108.313 37.0689 -120.473
rradius 80.4331
rwrist 31.2115
rhand -36.9598 -5.72251
rfingers 7.12502
rthumb -10.0358 -35.4632
lclavicle -2.49972e-014 -4.33351e-014
lhumerus -105.204 -39.6865 120.38
lradius 92.4314
lwrist -17.9046
lhand -26.9429 16.8335
lfingers 7.12502
lthumb -0.364934 46.8129
rfemur -43.6347 14.1337 15.4945
rtibia 28.0424
rfoot -16.1477 -21.9718
rtoes 6.46449
lfemur -40.0609 -9.89697 -18.692
ltibia 27.6987
lfoot -12.9043 22.0818
ltoes -10.8589
763
root 2.25943 17.1934 25.1345 -149.791 37.9791 -180.604
lowerback -19.2501 -2.56674 -2.25239
upperback -14.8373 -0.631383 1.8477
thorax -5.29394 1.02185 3.05786
lowerneck -8.69734 -12.0549 -17.2313
upperneck 30.9035 -16.201 12.212
head 14.6952 -7.09223 5.35191
rclavicle 2.15184e-014 2.26615e-014
rhumerus -109.693 36.9172 -121.402
rradius 80.991
rwrist 31.5786
rhand -43.2316 -4.18411
rfingers 7.12502
rthumb -16.0814 -33.5368
lclavicle 2.15184e-014 2.26615e-014
lhumerus -106.26 -39.5927 120.919
lradius 92.9974
lwrist -18.6638
lhand -27.9388 15.7318
lfingers 7.12502
lthumb -1.32684 45.7074
rfemur -43.9301 14.1882 15.385
rtibia 28.0213
rfoot -16.1586 -22.0799
rtoes 6.60921
lfemur -40.3754 -9.76266 -18.6934
ltibia 27.7064
lfoot -12.8533 21.9067
ltoes -11.0673
764
root 2.27578 17.194 25.1319 -149.886 37.9959 -180.587
lowerback -19.2655 -2.5279 -2.20476
upperback -14.761 -0.605032 1.84243
thorax -5.20131 1.02018 3.03058
lowerneck -8.78211 -12.0383 -17.1591
upperneck 30.9056 -16.1697 12.1726
head 14.6951 -7.0726 5.32575
rclavicle 8.50301e-014 1.19271e-015
rhumerus -110.92 36.6536 -122.29
rradius 81.5767
rwrist 31.9227
rhand -37.7741 -4.42293
rfingers 7.12502
rthumb -10.8214 -34.1241
lclavicle 8.50301e-014 1.19271e-015
lhumerus -107.349 -39.5906 121.574
lradius 93.5141
lwrist -19.5088
lhand -29.1242 14.8639
lfingers 7.12502
lthumb -2.4717 44.8294
rfemur -43.749 14.2416 15.4611
rtibia 27.9881
rfoot -16.1822 -22.0807
rtoes 6.57746
lfemur -40.206 -9.82593 -18.6351
ltibia 27.7003
lfoot -12.8937 22.0058
ltoes -10.923
